<svg xmlns="http://www.w3.org/2000/svg" viewBox="0 0 280 280" role="img" aria-labelledby="title desc">
  <title id="title">JC Code Fox Logo</title>
  <desc id="desc">Fox wearing a headset over a keyboard with the text JC-CODE</desc>
  <defs>
    <linearGradient id="fur" x1="0%" y1="0%" x2="100%" y2="100%">
      <stop offset="0%" stop-color="#ff9d3c" />
      <stop offset="50%" stop-color="#f46a23" />
      <stop offset="100%" stop-color="#d7491a" />
    </linearGradient>
    <linearGradient id="shadow" x1="0%" y1="0%" x2="100%" y2="100%">
      <stop offset="0%" stop-color="#fff2d6" />
      <stop offset="100%" stop-color="#f1c27d" />
    </linearGradient>
    <linearGradient id="accent" x1="0%" y1="0%" x2="0%" y2="100%">
      <stop offset="0%" stop-color="#ff5540" />
      <stop offset="100%" stop-color="#c31432" />
    </linearGradient>
    <clipPath id="keyboard-clip">
      <rect x="40" y="170" width="200" height="70" rx="16" ry="16" />
    </clipPath>
    <style>
      text { font-family: 'Montserrat', 'Segoe UI', sans-serif; font-weight: 800; letter-spacing: 4px; }
    </style>
  </defs>
  <rect width="280" height="280" rx="32" fill="#0b0d17" />
  <g transform="translate(40 26)">
    <path d="M100 24 L54 78 L66 152 L100 134 L134 152 L146 78 Z" fill="url(#fur)" stroke="#251513" stroke-width="6" stroke-linejoin="round" />
    <path d="M100 56 C82 56 68 70 68 96 C68 124 86 140 100 140 C114 140 132 124 132 96 C132 70 118 56 100 56 Z" fill="url(#shadow)" stroke="#251513" stroke-width="5" />
    <path d="M52 64 L26 18 L56 30 L78 60 Z" fill="#f9b95a" stroke="#251513" stroke-width="6" stroke-linejoin="round" />
    <path d="M148 64 L174 18 L144 30 L122 60 Z" fill="#f9b95a" stroke="#251513" stroke-width="6" stroke-linejoin="round" />
    <path d="M74 104 Q84 96 94 102 Q100 108 106 102 Q116 96 126 104 Q128 120 100 124 Q72 120 74 104 Z" fill="#251513" />
    <path d="M60 96 C60 84 70 76 80 76" fill="none" stroke="#251513" stroke-width="6" stroke-linecap="round" />
    <path d="M140 96 C140 84 130 76 120 76" fill="none" stroke="#251513" stroke-width="6" stroke-linecap="round" />
    <g stroke="#11141f" stroke-width="12" stroke-linecap="round" fill="none">
      <path d="M30 104 Q-2 112 4 142 C10 170 46 172 66 148" />
      <path d="M170 104 Q202 112 196 142 C190 170 154 172 134 148" />
    </g>
    <g fill="#181d2f" stroke="#2f384d" stroke-width="6">
      <rect x="24" y="160" width="152" height="70" rx="18" />
      <rect x="38" y="172" width="124" height="18" rx="6" />
      <rect x="38" y="198" width="124" height="18" rx="6" />
    </g>
    <g clip-path="url(#keyboard-clip)">
      <rect x="24" y="160" width="152" height="70" rx="18" fill="url(#accent)" opacity="0.16" />
    </g>
    <g transform="translate(154 164)">
      <rect x="0" y="0" width="70" height="70" rx="18" fill="#11141f" stroke="#2f384d" stroke-width="6" />
      <path d="M12 52 C18 38 18 18 20 10 Q28 0 46 0 C60 0 66 16 60 28 C54 40 44 50 32 56" fill="none" stroke="#ffb347" stroke-width="6" stroke-linecap="round" />
      <circle cx="20" cy="48" r="6" fill="#ff5540" />
      <circle cx="46" cy="54" r="6" fill="#ff5540" />
    </g>
  </g>
  <text x="50%" y="244" fill="#f8f9ff" font-size="36" text-anchor="middle">JC-CODE</text>
</svg>
